<?xml version="1.0" standalone="no"?>
<svg xmlns:xlink="http://www.w3.org/1999/xlink" id="wave" style="transform:rotate(180deg); transition: 0.3s" viewBox="0 0 1440 210" version="1.1" xmlns="http://www.w3.org/2000/svg"><defs><linearGradient id="sw-gradient-0" x1="0" x2="0" y1="1" y2="0"><stop stop-color="rgba(49, 86, 145, 1)" offset="0%"/><stop stop-color="rgba(49, 86, 145, 1)" offset="100%"/></linearGradient></defs><path style="transform:translate(0, 0px); opacity:1" fill="url(#sw-gradient-0)" d="M0,21L40,21C80,21,160,21,240,38.5C320,56,400,91,480,98C560,105,640,84,720,77C800,70,880,77,960,84C1040,91,1120,98,1200,98C1280,98,1360,91,1440,98C1520,105,1600,126,1680,126C1760,126,1840,105,1920,80.5C2000,56,2080,28,2160,14C2240,0,2320,0,2400,0C2480,0,2560,0,2640,17.5C2720,35,2800,70,2880,84C2960,98,3040,91,3120,80.5C3200,70,3280,56,3360,56C3440,56,3520,70,3600,73.5C3680,77,3760,70,3840,80.5C3920,91,4000,119,4080,119C4160,119,4240,91,4320,94.5C4400,98,4480,133,4560,147C4640,161,4720,154,4800,136.5C4880,119,4960,91,5040,98C5120,105,5200,147,5280,147C5360,147,5440,105,5520,91C5600,77,5680,91,5720,98L5760,105L5760,210L5720,210C5680,210,5600,210,5520,210C5440,210,5360,210,5280,210C5200,210,5120,210,5040,210C4960,210,4880,210,4800,210C4720,210,4640,210,4560,210C4480,210,4400,210,4320,210C4240,210,4160,210,4080,210C4000,210,3920,210,3840,210C3760,210,3680,210,3600,210C3520,210,3440,210,3360,210C3280,210,3200,210,3120,210C3040,210,2960,210,2880,210C2800,210,2720,210,2640,210C2560,210,2480,210,2400,210C2320,210,2240,210,2160,210C2080,210,2000,210,1920,210C1840,210,1760,210,1680,210C1600,210,1520,210,1440,210C1360,210,1280,210,1200,210C1120,210,1040,210,960,210C880,210,800,210,720,210C640,210,560,210,480,210C400,210,320,210,240,210C160,210,80,210,40,210L0,210Z"/><defs><linearGradient id="sw-gradient-1" x1="0" x2="0" y1="1" y2="0"><stop stop-color="rgba(45, 79, 133, 1)" offset="0%"/><stop stop-color="rgba(45, 79, 133, 1)" offset="100%"/></linearGradient></defs><path style="transform:translate(0, 50px); opacity:0.9" fill="url(#sw-gradient-1)" d="M0,105L40,91C80,77,160,49,240,38.5C320,28,400,35,480,56C560,77,640,112,720,119C800,126,880,105,960,84C1040,63,1120,42,1200,35C1280,28,1360,35,1440,42C1520,49,1600,56,1680,66.5C1760,77,1840,91,1920,108.5C2000,126,2080,147,2160,140C2240,133,2320,98,2400,80.5C2480,63,2560,63,2640,73.5C2720,84,2800,105,2880,105C2960,105,3040,84,3120,73.5C3200,63,3280,63,3360,77C3440,91,3520,119,3600,140C3680,161,3760,175,3840,150.5C3920,126,4000,63,4080,49C4160,35,4240,70,4320,73.5C4400,77,4480,49,4560,52.5C4640,56,4720,91,4800,108.5C4880,126,4960,126,5040,108.5C5120,91,5200,56,5280,42C5360,28,5440,35,5520,45.5C5600,56,5680,70,5720,77L5760,84L5760,210L5720,210C5680,210,5600,210,5520,210C5440,210,5360,210,5280,210C5200,210,5120,210,5040,210C4960,210,4880,210,4800,210C4720,210,4640,210,4560,210C4480,210,4400,210,4320,210C4240,210,4160,210,4080,210C4000,210,3920,210,3840,210C3760,210,3680,210,3600,210C3520,210,3440,210,3360,210C3280,210,3200,210,3120,210C3040,210,2960,210,2880,210C2800,210,2720,210,2640,210C2560,210,2480,210,2400,210C2320,210,2240,210,2160,210C2080,210,2000,210,1920,210C1840,210,1760,210,1680,210C1600,210,1520,210,1440,210C1360,210,1280,210,1200,210C1120,210,1040,210,960,210C880,210,800,210,720,210C640,210,560,210,480,210C400,210,320,210,240,210C160,210,80,210,40,210L0,210Z"/><defs><linearGradient id="sw-gradient-2" x1="0" x2="0" y1="1" y2="0"><stop stop-color="rgba(36, 64, 107, 1)" offset="0%"/><stop stop-color="rgba(36, 64, 107, 1)" offset="100%"/></linearGradient></defs><path style="transform:translate(0, 100px); opacity:0.8" fill="url(#sw-gradient-2)" d="M0,168L40,157.5C80,147,160,126,240,105C320,84,400,63,480,59.5C560,56,640,70,720,66.5C800,63,880,42,960,42C1040,42,1120,63,1200,73.5C1280,84,1360,84,1440,84C1520,84,1600,84,1680,77C1760,70,1840,56,1920,49C2000,42,2080,42,2160,38.5C2240,35,2320,28,2400,49C2480,70,2560,119,2640,133C2720,147,2800,126,2880,119C2960,112,3040,119,3120,129.5C3200,140,3280,154,3360,133C3440,112,3520,56,3600,52.5C3680,49,3760,98,3840,101.5C3920,105,4000,63,4080,66.5C4160,70,4240,119,4320,129.5C4400,140,4480,112,4560,94.5C4640,77,4720,70,4800,73.5C4880,77,4960,91,5040,80.5C5120,70,5200,35,5280,49C5360,63,5440,126,5520,147C5600,168,5680,147,5720,136.5L5760,126L5760,210L5720,210C5680,210,5600,210,5520,210C5440,210,5360,210,5280,210C5200,210,5120,210,5040,210C4960,210,4880,210,4800,210C4720,210,4640,210,4560,210C4480,210,4400,210,4320,210C4240,210,4160,210,4080,210C4000,210,3920,210,3840,210C3760,210,3680,210,3600,210C3520,210,3440,210,3360,210C3280,210,3200,210,3120,210C3040,210,2960,210,2880,210C2800,210,2720,210,2640,210C2560,210,2480,210,2400,210C2320,210,2240,210,2160,210C2080,210,2000,210,1920,210C1840,210,1760,210,1680,210C1600,210,1520,210,1440,210C1360,210,1280,210,1200,210C1120,210,1040,210,960,210C880,210,800,210,720,210C640,210,560,210,480,210C400,210,320,210,240,210C160,210,80,210,40,210L0,210Z"/></svg>