<?xml version="1.0" standalone="no"?>
<svg xmlns:xlink="http://www.w3.org/1999/xlink" id="wave" style="transform:rotate(0deg); transition: 0.3s" viewBox="0 0 1440 100" version="1.1" xmlns="http://www.w3.org/2000/svg"><defs><linearGradient id="sw-gradient-0" x1="0" x2="0" y1="1" y2="0"><stop stop-color="rgba(49, 86, 145, 1)" offset="0%"/><stop stop-color="rgba(49, 86, 145, 1)" offset="100%"/></linearGradient></defs><path style="transform:translate(0, 0px); opacity:1" fill="url(#sw-gradient-0)" d="M0,40L40,48.3C80,57,160,73,240,76.7C320,80,400,70,480,68.3C560,67,640,73,720,73.3C800,73,880,67,960,60C1040,53,1120,47,1200,50C1280,53,1360,67,1440,73.3C1520,80,1600,80,1680,80C1760,80,1840,80,1920,73.3C2000,67,2080,53,2160,55C2240,57,2320,73,2400,80C2480,87,2560,83,2640,78.3C2720,73,2800,67,2880,66.7C2960,67,3040,73,3120,65C3200,57,3280,33,3360,25C3440,17,3520,23,3600,36.7C3680,50,3760,70,3840,68.3C3920,67,4000,43,4080,43.3C4160,43,4240,67,4320,76.7C4400,87,4480,83,4560,83.3C4640,83,4720,87,4800,88.3C4880,90,4960,90,5040,90C5120,90,5200,90,5280,76.7C5360,63,5440,37,5520,25C5600,13,5680,17,5720,18.3L5760,20L5760,100L5720,100C5680,100,5600,100,5520,100C5440,100,5360,100,5280,100C5200,100,5120,100,5040,100C4960,100,4880,100,4800,100C4720,100,4640,100,4560,100C4480,100,4400,100,4320,100C4240,100,4160,100,4080,100C4000,100,3920,100,3840,100C3760,100,3680,100,3600,100C3520,100,3440,100,3360,100C3280,100,3200,100,3120,100C3040,100,2960,100,2880,100C2800,100,2720,100,2640,100C2560,100,2480,100,2400,100C2320,100,2240,100,2160,100C2080,100,2000,100,1920,100C1840,100,1760,100,1680,100C1600,100,1520,100,1440,100C1360,100,1280,100,1200,100C1120,100,1040,100,960,100C880,100,800,100,720,100C640,100,560,100,480,100C400,100,320,100,240,100C160,100,80,100,40,100L0,100Z"/><defs><linearGradient id="sw-gradient-1" x1="0" x2="0" y1="1" y2="0"><stop stop-color="rgba(45, 79, 133, 1)" offset="0%"/><stop stop-color="rgba(45, 79, 133, 1)" offset="100%"/></linearGradient></defs><path style="transform:translate(0, 50px); opacity:0.9" fill="url(#sw-gradient-1)" d="M0,40L40,43.3C80,47,160,53,240,55C320,57,400,53,480,58.3C560,63,640,77,720,70C800,63,880,37,960,35C1040,33,1120,57,1200,68.3C1280,80,1360,80,1440,71.7C1520,63,1600,47,1680,35C1760,23,1840,17,1920,15C2000,13,2080,17,2160,15C2240,13,2320,7,2400,13.3C2480,20,2560,40,2640,43.3C2720,47,2800,33,2880,38.3C2960,43,3040,67,3120,65C3200,63,3280,37,3360,33.3C3440,30,3520,50,3600,61.7C3680,73,3760,77,3840,75C3920,73,4000,67,4080,66.7C4160,67,4240,73,4320,70C4400,67,4480,53,4560,51.7C4640,50,4720,60,4800,63.3C4880,67,4960,63,5040,60C5120,57,5200,53,5280,48.3C5360,43,5440,37,5520,43.3C5600,50,5680,70,5720,80L5760,90L5760,100L5720,100C5680,100,5600,100,5520,100C5440,100,5360,100,5280,100C5200,100,5120,100,5040,100C4960,100,4880,100,4800,100C4720,100,4640,100,4560,100C4480,100,4400,100,4320,100C4240,100,4160,100,4080,100C4000,100,3920,100,3840,100C3760,100,3680,100,3600,100C3520,100,3440,100,3360,100C3280,100,3200,100,3120,100C3040,100,2960,100,2880,100C2800,100,2720,100,2640,100C2560,100,2480,100,2400,100C2320,100,2240,100,2160,100C2080,100,2000,100,1920,100C1840,100,1760,100,1680,100C1600,100,1520,100,1440,100C1360,100,1280,100,1200,100C1120,100,1040,100,960,100C880,100,800,100,720,100C640,100,560,100,480,100C400,100,320,100,240,100C160,100,80,100,40,100L0,100Z"/><defs><linearGradient id="sw-gradient-2" x1="0" x2="0" y1="1" y2="0"><stop stop-color="rgba(36, 64, 107, 1)" offset="0%"/><stop stop-color="rgba(36, 64, 107, 1)" offset="100%"/></linearGradient></defs><path style="transform:translate(0, 100px); opacity:0.8" fill="url(#sw-gradient-2)" d="M0,70L40,65C80,60,160,50,240,40C320,30,400,20,480,25C560,30,640,50,720,48.3C800,47,880,23,960,13.3C1040,3,1120,7,1200,11.7C1280,17,1360,23,1440,33.3C1520,43,1600,57,1680,58.3C1760,60,1840,50,1920,45C2000,40,2080,40,2160,43.3C2240,47,2320,53,2400,58.3C2480,63,2560,67,2640,70C2720,73,2800,77,2880,73.3C2960,70,3040,60,3120,48.3C3200,37,3280,23,3360,16.7C3440,10,3520,10,3600,20C3680,30,3760,50,3840,53.3C3920,57,4000,43,4080,41.7C4160,40,4240,50,4320,60C4400,70,4480,80,4560,75C4640,70,4720,50,4800,43.3C4880,37,4960,43,5040,50C5120,57,5200,63,5280,55C5360,47,5440,23,5520,15C5600,7,5680,13,5720,16.7L5760,20L5760,100L5720,100C5680,100,5600,100,5520,100C5440,100,5360,100,5280,100C5200,100,5120,100,5040,100C4960,100,4880,100,4800,100C4720,100,4640,100,4560,100C4480,100,4400,100,4320,100C4240,100,4160,100,4080,100C4000,100,3920,100,3840,100C3760,100,3680,100,3600,100C3520,100,3440,100,3360,100C3280,100,3200,100,3120,100C3040,100,2960,100,2880,100C2800,100,2720,100,2640,100C2560,100,2480,100,2400,100C2320,100,2240,100,2160,100C2080,100,2000,100,1920,100C1840,100,1760,100,1680,100C1600,100,1520,100,1440,100C1360,100,1280,100,1200,100C1120,100,1040,100,960,100C880,100,800,100,720,100C640,100,560,100,480,100C400,100,320,100,240,100C160,100,80,100,40,100L0,100Z"/></svg>